<svg id="Layer_1" data-name="Layer 1" xmlns="http://www.w3.org/2000/svg" xmlns:xlink="http://www.w3.org/1999/xlink" width="485.84" height="203.15" viewBox="0 0 485.84 203.15"><defs><style>.cls-1{fill:#a41a2d;}.cls-2{fill:#1f2049;}.cls-3{fill:#fff;}</style><symbol id="icon-thom_browne_logo-30c0a" data-name="icon-thom browne logo-30c0a" viewBox="0 0 119.57 50"><path class="cls-1" d="M53.27,0h4.78V15.21H53.27V0"/><path class="cls-2" d="M62.82,0H67.6V15.21H62.82V0"/><path class="cls-3" d="M58.05,0h4.77V15.21H58.05V0"/><path d="M3.65,36.26V48.17H0v1.59H8.77V48.17H5.11V36.26H3.65m6.74,0v13.5h1.47V44.22h5.75v5.54h1.46V36.26H17.61v6.36H11.86V36.26H10.39m11.72,6.55a6.08,6.08,0,0,1,1.1-3.87,3.3,3.3,0,0,1,5.38,0A6.54,6.54,0,0,1,29.68,43a8.26,8.26,0,0,1-.56,3.12,3.83,3.83,0,0,1-1.3,1.68,3.19,3.19,0,0,1-1.9.63,3.3,3.3,0,0,1-2.73-1.38A6.93,6.93,0,0,1,22.11,42.81Zm-1.51,0a8.16,8.16,0,0,0,1.52,5.3A4.72,4.72,0,0,0,25.91,50a4.66,4.66,0,0,0,2.67-.83,5.57,5.57,0,0,0,1.91-2.41,9.14,9.14,0,0,0,.7-3.76,8.1,8.1,0,0,0-1.36-4.88,4.73,4.73,0,0,0-7.87.05,8,8,0,0,0-1.36,4.67M33,36.26v13.5h2.2l2.63-9.56.53-2c.13.49.32,1.21.59,2.16l2.65,9.39h2V36.26H42.16V47.55L38.94,36.27H37.62L34.41,47.75V36.27H33m18.23,1.59H54a4,4,0,0,1,1.34.16,1.88,1.88,0,0,1,1,.79,2.64,2.64,0,0,1,.32,1.38,2.47,2.47,0,0,1-.31,1.29,1.89,1.89,0,0,1-.84.77,4.29,4.29,0,0,1-1.67.25H51.23Zm0,6.23h2.4a4.57,4.57,0,0,1,1.33.13,1.66,1.66,0,0,1,.89.65,2.19,2.19,0,0,1,.3,1.23,2.39,2.39,0,0,1-.28,1.22,1.43,1.43,0,0,1-.74.66,4.94,4.94,0,0,1-1.68.19H51.23Zm-1.46-7.83v13.5h4.15a4.31,4.31,0,0,0,2-.39,3,3,0,0,0,1.21-1.22,3.67,3.67,0,0,0,.47-1.83,3.41,3.41,0,0,0-.41-1.67,3.13,3.13,0,0,0-1.14-1.2,3,3,0,0,0,1.52-1.19,3.73,3.73,0,0,0,.55-2.08,4.38,4.38,0,0,0-.5-2.15,3,3,0,0,0-1.34-1.34,5,5,0,0,0-2.3-.43H49.77M61.59,43.8h3.14a4,4,0,0,1,1.57.25,1.94,1.94,0,0,1,.85.78,2.42,2.42,0,0,1,.31,1.25,2.13,2.13,0,0,1-.6,1.6,2.45,2.45,0,0,1-1.78.59H61.59Zm-1.47-7.54v13.5H65a5.19,5.19,0,0,0,2.27-.38,2.85,2.85,0,0,0,1.2-1.25,4.32,4.32,0,0,0,.47-2,3.75,3.75,0,0,0-.8-2.48,3.69,3.69,0,0,0-2.31-1.2,4.06,4.06,0,0,0,.94-.75A9.92,9.92,0,0,0,68,39.94l1.93-3.68H68l-1.48,2.81a17.48,17.48,0,0,1-1.29,2.22,2.46,2.46,0,0,1-.85.77,2.68,2.68,0,0,1-1.14.2H61.59v-6H60.12m11.72,6.55a6.08,6.08,0,0,1,1.1-3.87,3.3,3.3,0,0,1,5.38,0A6.54,6.54,0,0,1,79.41,43a8.26,8.26,0,0,1-.56,3.12,3.83,3.83,0,0,1-1.3,1.68,3.19,3.19,0,0,1-1.9.63,3.3,3.3,0,0,1-2.73-1.38A6.93,6.93,0,0,1,71.84,42.81Zm-1.5,0a8.16,8.16,0,0,0,1.51,5.3A4.72,4.72,0,0,0,75.64,50a4.66,4.66,0,0,0,2.67-.83,5.57,5.57,0,0,0,1.91-2.41,9.14,9.14,0,0,0,.7-3.76,8.1,8.1,0,0,0-1.36-4.88,4.73,4.73,0,0,0-7.87.05,7.94,7.94,0,0,0-1.35,4.67m13.87-6.58-2.95,13.5h1.5l1.69-8.85c.18-.91.33-1.83.47-2.76l.49,2.5,2.11,9.11H89.3l1.58-6.83a48.47,48.47,0,0,0,.86-4.78q.21,1.32.54,2.94L94,49.76H95.5l-3-13.5h-1.4L88.71,46.55l-.35,1.58c-.11-.59-.21-1.12-.32-1.58L85.69,36.26H84.21m12.61,0v13.5h1.5l5.82-10.62V49.76h1.4V36.26H104L98.23,46.88V36.26H96.82m10.69,0v13.5h8V48.17H109V44h6.12V42.45H109V37.86h6.79v-1.6h-8.26m10.51,0v1.89h1.55V36.26H118M38.15,23.54v7.67H39l3.3-6v6h.8V23.54h-.86l-3.29,6v-6h-.8m5.92,0v7.67h4.54V30.3H44.9V28h3.48v-.9H44.9V24.45h3.86v-.91H44.07m7,0-1.68,7.67h.85l1-5c.1-.51.19-1,.27-1.57L51.77,26,53,31.21h1l.89-3.88a27.06,27.06,0,0,0,.49-2.72c.08.5.18,1.06.31,1.67l1,4.93h.84l-1.73-7.67H55l-1.33,5.84-.2.9q-.07-.45-.18-.9l-1.33-5.84h-.84m11.65,0v3.25l-2.42,4.42h1l1.24-2.32c.22-.42.44-.85.64-1.29.18.4.41.85.68,1.35l1.23,2.26h1l-2.51-4.42V23.54h-.83m4.1,3.72a3.43,3.43,0,0,1,.63-2.2A1.89,1.89,0,0,1,69,24.28a1.86,1.86,0,0,1,1.53.79,3.73,3.73,0,0,1,.62,2.32,4.69,4.69,0,0,1-.32,1.77,2.15,2.15,0,0,1-.74,1,1.85,1.85,0,0,1-1.08.35,1.9,1.9,0,0,1-1.55-.78,4,4,0,0,1-.61-2.43Zm-.85,0a4.61,4.61,0,0,0,.86,3A2.66,2.66,0,0,0,69,31.34a2.62,2.62,0,0,0,1.51-.47A3.16,3.16,0,0,0,71.6,29.5a5.13,5.13,0,0,0,.4-2.13,4.62,4.62,0,0,0-.78-2.78,2.69,2.69,0,0,0-4.47,0A4.55,4.55,0,0,0,66,27.28m7.64.54h1.78a2.23,2.23,0,0,1,.89.14,1,1,0,0,1,.48.45,1.35,1.35,0,0,1,.18.7,1.21,1.21,0,0,1-.34.92,1.38,1.38,0,0,1-1,.33h-2Zm-.83-4.28v7.67h2.78A2.82,2.82,0,0,0,76.87,31a1.56,1.56,0,0,0,.68-.71,2.42,2.42,0,0,0,.27-1.16A2,2,0,0,0,76.05,27a2.08,2.08,0,0,0,.54-.43,5.3,5.3,0,0,0,.65-1l1.1-2.09h-1l-.83,1.6a12.1,12.1,0,0,1-.74,1.26,1.52,1.52,0,0,1-.48.43,1.46,1.46,0,0,1-.65.11h-1v-3.4H72.8m6.17,0v7.67h.83v-3.8l3.12,3.8h1.13L81.41,28.1l2.76-4.56h-1.1l-2.23,3.88-1-1.22V23.54H79"/></symbol></defs><title>thom-browne-logo-freelogovectors.net</title><use id="icon-thom_browne_logo-30c0a-3" data-name="icon-thom browne logo-30c0a" width="119.57" height="50" transform="matrix(4.06, 0, 0, -4.06, 0, 203.15)" xlink:href="#icon-thom_browne_logo-30c0a"/></svg>